<svg width="40" height="20" viewBox="0 0 40 20" fill="none" xmlns="http://www.w3.org/2000/svg">
<path d="M22.6121 0.706858C23.0748 0.301247 23.6905 0.0770079 24.3293 0.0814587C24.9681 0.0859095 25.58 0.318702 26.0359 0.730715C26.4919 1.14273 26.7562 1.70173 26.7731 2.28978C26.79 2.87782 26.5581 3.44891 26.1264 3.88253L13.0217 18.9745C12.7963 19.198 12.5244 19.3774 12.222 19.5019C11.9197 19.6264 11.5932 19.6935 11.2621 19.6991C10.9309 19.7048 10.602 19.6489 10.2948 19.5348C9.9877 19.4206 9.70871 19.2507 9.47453 19.035L0.784013 11.0323C0.541996 10.8247 0.347881 10.5742 0.213247 10.296C0.078613 10.0177 0.00621903 9.71737 0.000383359 9.4128C-0.00545231 9.10823 0.05539 8.8057 0.179281 8.52325C0.303172 8.2408 0.487573 7.98423 0.721484 7.76883C0.955395 7.55343 1.23402 7.38363 1.54075 7.26954C1.84747 7.15546 2.17601 7.09943 2.50675 7.1048C2.8375 7.11018 3.16369 7.17684 3.46585 7.30082C3.76801 7.4248 4.03996 7.60355 4.26548 7.82641L11.143 14.1566L22.5464 0.773397L22.6121 0.706858ZM19.5905 16.2525L22.6121 19.035C22.8463 19.2502 23.125 19.4198 23.4319 19.5336C23.7387 19.6474 24.0673 19.7032 24.398 19.6975C24.7287 19.6919 25.0549 19.625 25.3569 19.5008C25.6589 19.3765 25.9307 19.1976 26.156 18.9745L39.2673 3.88253C39.5029 3.6684 39.6891 3.41276 39.815 3.13088C39.9408 2.849 40.0037 2.54665 39.9998 2.24189C39.996 1.93713 39.9255 1.63621 39.7925 1.35711C39.6595 1.078 39.4669 0.826435 39.226 0.617424C38.9851 0.408412 38.7009 0.246246 38.3905 0.140609C38.08 0.0349726 37.7496 -0.0119689 37.419 0.00258934C37.0884 0.0171476 36.7644 0.0929074 36.4663 0.225343C36.1682 0.357778 35.9022 0.544173 35.684 0.773397L24.2773 14.1566L22.6844 12.6867L19.5905 16.2525Z" fill="white"/>
</svg>
